<?xml version="1.0" encoding="UTF-8" standalone="no"?>
<!-- Created with Inkscape (http://www.inkscape.org/) -->

<svg
   xmlns:dc="http://purl.org/dc/elements/1.1/"
   xmlns:cc="http://creativecommons.org/ns#"
   xmlns:rdf="http://www.w3.org/1999/02/22-rdf-syntax-ns#"
   xmlns:svg="http://www.w3.org/2000/svg"
   xmlns="http://www.w3.org/2000/svg"
   xmlns:sodipodi="http://sodipodi.sourceforge.net/DTD/sodipodi-0.dtd"
   xmlns:inkscape="http://www.inkscape.org/namespaces/inkscape"
   sodipodi:docname="simpsons-1D.svg"
   inkscape:version="0.48.3.1 r9886"
   version="1.1"
   id="svg2"
   height="210.75253"
   width="352.17163"
   inkscape:export-filename="/home/andrew/eclipse_workspace/numerical.integration/doc/simpsons-1D.png"
   inkscape:export-xdpi="150"
   inkscape:export-ydpi="150">
  <sodipodi:namedview
     id="base"
     pagecolor="#ffffff"
     bordercolor="#666666"
     borderopacity="1.0"
     inkscape:pageopacity="0.0"
     inkscape:pageshadow="2"
     inkscape:zoom="0.7"
     inkscape:cx="499.21638"
     inkscape:cy="-5.6629748"
     inkscape:document-units="px"
     inkscape:current-layer="svg2"
     showgrid="true"
     inkscape:window-width="1920"
     inkscape:window-height="1032"
     inkscape:window-x="0"
     inkscape:window-y="0"
     inkscape:window-maximized="1"
     inkscape:snap-global="false"
     fit-margin-top="0"
     fit-margin-left="0"
     fit-margin-right="0"
     fit-margin-bottom="0">
    <inkscape:grid
       type="xygrid"
       id="grid2985"
       empspacing="5"
       visible="true"
       enabled="true"
       snapvisiblegridlinesonly="true"
       originx="-77.628723px"
       originy="-749.74747px" />
  </sodipodi:namedview>
  <defs
     id="defs4" />
  <metadata
     id="metadata7">
    <rdf:RDF>
      <cc:Work
         rdf:about="">
        <dc:format>image/svg+xml</dc:format>
        <dc:type
           rdf:resource="http://purl.org/dc/dcmitype/StillImage" />
        <dc:title></dc:title>
      </cc:Work>
    </rdf:RDF>
  </metadata>
  <g
     inkscape:label="Layer 1"
     inkscape:groupmode="layer"
     id="layer1"
     transform="translate(-77.628723,-91.862183)">
    <path
       style="color:#000000;fill:#ffffff;stroke:#1a1a1a;stroke-width:1;stroke-linecap:butt;stroke-linejoin:miter;stroke-miterlimit:4;stroke-opacity:1;stroke-dasharray:none;stroke-dashoffset:0;marker:none;visibility:visible;display:inline;overflow:visible;enable-background:accumulate"
       d="m 80,292.36218 340,0 m -340,0 0,-199.999997 m 0,179.999997 c 1.144781,-1.61613 2.289562,-3.19964 3.434343,-4.75119 1.144782,-1.55156 2.289563,-3.07102 3.434344,-4.55926 1.144781,-1.48823 2.289562,-2.94504 3.434343,-4.37127 1.144781,-1.42623 2.289563,-2.8217 3.434344,-4.18724 1.144781,-1.36555 2.289562,-2.701 3.434343,-4.00718 1.144781,-1.30618 2.289562,-2.58293 3.434343,-3.83107 1.14478,-1.24814 2.28956,-2.4675 3.43434,-3.65891 1.14479,-1.19141 2.28957,-2.35471 3.43435,-3.49072 1.14478,-1.13601 2.28956,-2.24456 3.43434,-3.32648 1.14478,-1.08192 2.28956,-2.13705 3.43434,-3.1662 1.14479,-1.02915 2.28957,-2.03217 3.43435,-3.00987 1.14478,-0.97771 2.28956,-1.92994 3.43434,-2.85751 1.14478,-0.92758 2.28956,-1.83034 3.43434,-2.70911 1.14479,-0.87876 2.28957,-1.73338 3.43435,-2.56465 1.14478,-0.83127 2.28956,-1.63906 3.43434,-2.42416 1.14478,-0.7851 2.28956,-1.54738 3.43434,-2.28763 1.14479,-0.74024 2.28957,-1.45833 3.43435,-2.15504 1.14478,-0.69672 2.28956,-1.37193 3.43434,-2.02643 1.14478,-0.6545 2.28956,-1.28816 3.43435,-1.90176 1.14478,-0.61361 2.28956,-1.20703 3.43434,-1.78106 1.14478,-0.57403 2.28956,-1.12854 3.43434,-1.66431 1.14478,-0.53578 2.28956,-1.05269 3.43435,-1.55153 1.14478,-0.49883 2.28956,-0.97947 3.43434,-1.44269 1.14478,-0.46321 2.28956,-0.90889 3.43434,-1.33781 1.14478,-0.42892 2.28956,-0.84096 3.43435,-1.2369 1.14478,-0.39593 2.28956,-0.77566 3.43434,-1.13993 1.14478,-0.36428 2.28956,-0.71301 3.43434,-1.04694 1.14478,-0.33393 2.28957,-0.65298 3.43435,-0.95789 1.14478,-0.30491 2.28956,-0.5956 3.43434,-0.8728 1.14478,-0.27721 2.28956,-0.54085 3.43434,-0.79168 1.14478,-0.25082 2.28957,-0.48874 3.43435,-0.7145 1.14478,-0.22575 2.28956,-0.43927 3.43434,-0.64128 1.14478,-0.20202 2.28956,-0.39245 3.43434,-0.57203 1.14478,-0.17959 2.28957,-0.34826 3.43435,-0.50673 1.14478,-0.15848 2.28956,-0.3067 3.43434,-0.44539 1.14478,-0.13869 2.28956,-0.26779 3.43434,-0.38801 1.14478,-0.12022 2.28957,-0.23151 3.43435,-0.33457 1.14478,-0.10307 2.28956,-0.19787 3.43434,-0.28511 1.14478,-0.0872 2.28956,-0.16687 3.43434,-0.2396 1.14479,-0.0727 2.28957,-0.13851 3.43435,-0.19804 1.14478,-0.0595 2.28956,-0.11279 3.43434,-0.16045 1.14478,-0.0477 2.28956,-0.0897 3.43434,-0.1268 1.14479,-0.0371 2.28957,-0.0693 3.43435,-0.0971 1.14478,-0.0279 2.28956,-0.0514 3.43434,-0.0714 1.14478,-0.02 2.28956,-0.0363 3.43434,-0.0496 1.14479,-0.0134 2.28957,-0.0238 3.43435,-0.0318 1.14478,-0.008 2.28956,-0.0138 3.43434,-0.018 1.14478,-0.004 2.28956,-0.007 3.43434,-0.008 1.14479,-0.001 2.28957,-0.002 3.43435,-0.002 1.14478,-1.7e-4 2.28956,-1e-5 3.43434,-1.7e-4 1.14478,-1.6e-4 2.28956,-6.6e-4 3.43435,-0.002 1.14478,-0.001 2.28956,-0.004 3.43434,-0.008 1.14478,-0.004 2.28956,-0.01 3.43434,-0.018 1.14478,-0.008 2.28956,-0.0185 3.43435,-0.0318 1.14478,-0.0134 2.28956,-0.0297 3.43434,-0.0496 1.14478,-0.0199 2.28956,-0.0435 3.43434,-0.0714 1.14478,-0.0279 2.28956,-0.06 3.43435,-0.0971 1.14478,-0.0371 2.28956,-0.0792 3.43434,-0.12681 1.14478,-0.0477 2.28956,-0.10092 3.43434,-0.16044 1.14478,-0.0595 2.28956,-0.12533 3.43435,-0.19805 1.14478,-0.0727 2.28956,-0.15237 3.43434,-0.23959 1.14478,-0.0872 2.28956,-0.18206 3.43434,-0.28511 1.14478,-0.10305 2.28957,-0.21438 3.43435,-0.33458 1.14478,-0.1202 2.28956,-0.24933 3.43434,-0.388 1.14478,-0.13867 2.28956,-0.28693 3.43434,-0.44539 1.14478,-0.15846 2.28957,-0.32717 3.43435,-0.50673 1.14478,-0.17956 2.28956,-0.37004 3.43434,-0.57203 1.14478,-0.20199 2.28956,-0.41555 3.43434,-0.64129 1.14478,-0.22573 2.28957,-0.4637 3.43435,-0.7145 1.14478,-0.25079 2.28956,-0.51449 3.43434,-0.79167 1.14478,-0.27718 2.28956,-0.56792 3.43434,-0.87281 1.14478,-0.30488 2.28957,-0.62398 3.43435,-0.95789 1.14478,-0.3339 2.28956,-0.68269 3.43434,-1.04693 1.14478,-0.36424 2.28956,-0.74403 3.43434,-1.13994 1.14479,-0.3959 2.28957,-0.80801 3.43435,-1.23689 1.14478,-0.42889 2.28956,-0.87464 3.43434,-1.33782 1.14478,-0.46318 2.28956,-0.94389 3.43434,-1.44269 1.14479,-0.4988 2.28957,-1.01579 3.43435,-1.55152 1.14478,-0.53573 2.28956,-1.09032 3.43434,-1.66431 1.14478,-0.57399 2.28956,-1.1675 3.43434,-1.78106 1.14479,-0.61357 2.28957,-1.24731 3.43435,-1.90177 1.14478,-0.65445 2.28956,-1.32975 3.43434,-2.02642 1.14478,-0.69667 2.28956,-1.41485 3.43435,-2.15505 1.14478,-0.7402 2.28956,-1.50257 3.43434,-2.28762 1.14478,-0.78506 2.28956,-1.59294 3.43434,-2.42416 1.14478,-0.83123 2.28956,-1.68594 3.43435,-2.56466 1.14478,-0.87871 2.28956,-1.78158 3.43434,-2.7091 1.14478,-0.92752 2.28956,-1.87986 3.43434,-2.85751 1.14478,-0.97765 2.28956,-1.98078 3.43435,-3.00988 1.14478,-1.0291 2.28956,-2.08433 3.43434,-3.1662 1.14478,-1.08186 2.28956,-2.19052 3.43434,-3.32648 1.14478,-1.13595 2.28956,-2.29936 3.43435,-3.49071 1.14478,-1.19136 2.28956,-2.41084 3.43434,-3.65892 1.14478,-1.24808 2.28956,-2.52494 3.43434,-3.83106 1.14478,-1.30613 2.28957,-2.64169 3.43435,-4.00718 1.14478,-1.36549 2.28956,-2.76108 3.43434,-4.18725 1.14478,-1.42617 2.28956,-2.8831 3.43434,-4.37127 1.14478,-1.48817 2.28957,-3.00776 3.43435,-4.55925 1.14478,-1.55149 2.28956,-3.13507 3.43434,-4.7512"
       title="(x-2) * (x-2) * (x-2) +10"
       id="path2995"
       inkscape:connector-curvature="0" />
    <text
       xml:space="preserve"
       style="font-size:10px;font-style:normal;font-variant:normal;font-weight:normal;font-stretch:normal;text-align:start;line-height:125%;letter-spacing:0px;word-spacing:0px;writing-mode:lr-tb;text-anchor:start;fill:#000000;fill-opacity:1;stroke:none;font-family:Sans;-inkscape-font-specification:Sans"
       x="76.969543"
       y="302.10965"
       id="text3034"
       sodipodi:linespacing="125%"><tspan
         sodipodi:role="line"
         id="tspan3036"
         x="76.969543"
         y="302.10965">0</tspan></text>
    <text
       xml:space="preserve"
       style="font-size:10px;font-style:normal;font-variant:normal;font-weight:normal;font-stretch:normal;text-align:start;line-height:125%;letter-spacing:0px;word-spacing:0px;writing-mode:lr-tb;text-anchor:start;fill:#000000;fill-opacity:1;stroke:none;font-family:Sans;-inkscape-font-specification:Sans"
       x="161.80037"
       y="302.58017"
       id="text3034-2"
       sodipodi:linespacing="125%"><tspan
         sodipodi:role="line"
         id="tspan3036-2"
         x="161.80037"
         y="302.58017">1</tspan></text>
    <text
       xml:space="preserve"
       style="font-size:10px;font-style:normal;font-variant:normal;font-weight:normal;font-stretch:normal;text-align:start;line-height:125%;letter-spacing:0px;word-spacing:0px;writing-mode:lr-tb;text-anchor:start;fill:#000000;fill-opacity:1;stroke:none;font-family:Sans;-inkscape-font-specification:Sans"
       x="247.02031"
       y="302.61472"
       id="text3034-2-3"
       sodipodi:linespacing="125%"><tspan
         sodipodi:role="line"
         id="tspan3036-2-3"
         x="247.02031"
         y="302.61472">2</tspan></text>
    <text
       xml:space="preserve"
       style="font-size:10px;font-style:normal;font-variant:normal;font-weight:normal;font-stretch:normal;text-align:start;line-height:125%;letter-spacing:0px;word-spacing:0px;writing-mode:lr-tb;text-anchor:start;fill:#000000;fill-opacity:1;stroke:none;font-family:Sans;-inkscape-font-specification:Sans"
       x="416.51523"
       y="302.57718"
       id="text3034-2-3-8"
       sodipodi:linespacing="125%"><tspan
         sodipodi:role="line"
         id="tspan3036-2-3-3"
         x="416.51523"
         y="302.57718">4</tspan></text>
    <path
       style="fill:none;stroke:#000000;stroke-width:1.45773792px;stroke-linecap:butt;stroke-linejoin:miter;stroke-opacity:1"
       d="m 420,112.36218 0,180 -340,0 0,-20 85,-70 85,-10 85,-10 z"
       id="path3101"
       inkscape:connector-curvature="0"
       sodipodi:nodetypes="cccc" />
    <path
       style="fill:none;stroke:#000000;stroke-width:1.45773792px;stroke-linecap:butt;stroke-linejoin:miter;stroke-opacity:1"
       d="m 165,202.36218 0,90"
       id="path3103"
       inkscape:connector-curvature="0"
       sodipodi:nodetypes="cc" />
    <path
       style="fill:none;stroke:#000000;stroke-width:1.45773792px;stroke-linecap:butt;stroke-linejoin:miter;stroke-opacity:1"
       d="m 250,192.36218 0,100"
       id="path3107"
       inkscape:connector-curvature="0"
       sodipodi:nodetypes="cc" />
    <path
       style="fill:none;stroke:#000000;stroke-width:1.45773792px;stroke-linecap:butt;stroke-linejoin:miter;stroke-opacity:1"
       d="m 335,182.36218 0,110"
       id="path3109"
       inkscape:connector-curvature="0"
       sodipodi:nodetypes="cc" />
    <text
       xml:space="preserve"
       style="font-size:10px;font-style:normal;font-variant:normal;font-weight:normal;font-stretch:normal;text-align:start;line-height:125%;letter-spacing:0px;word-spacing:0px;writing-mode:lr-tb;text-anchor:start;fill:#000000;fill-opacity:1;stroke:none;font-family:Sans;-inkscape-font-specification:Sans"
       x="332.02029"
       y="302.41458"
       id="text3034-2-3-5"
       sodipodi:linespacing="125%"><tspan
         sodipodi:role="line"
         id="tspan3036-2-3-4"
         x="332.02029"
         y="302.41458">3</tspan></text>
    <text
       xml:space="preserve"
       style="font-size:10px;font-style:normal;font-variant:normal;font-weight:normal;font-stretch:normal;text-align:start;line-height:125%;letter-spacing:0px;word-spacing:0px;writing-mode:lr-tb;text-anchor:start;fill:#000000;fill-opacity:1;stroke:none;font-family:Sans;-inkscape-font-specification:Sans"
       x="82.980965"
       y="284.43326"
       id="text3034-7"
       sodipodi:linespacing="125%"><tspan
         style="font-size:6px"
         sodipodi:role="line"
         id="tspan3036-6"
         x="82.980965"
         y="284.43326">2</tspan></text>
    <text
       xml:space="preserve"
       style="font-size:10px;font-style:normal;font-variant:normal;font-weight:normal;font-stretch:normal;text-align:start;line-height:125%;letter-spacing:0px;word-spacing:0px;writing-mode:lr-tb;text-anchor:start;fill:#000000;fill-opacity:1;stroke:none;font-family:Sans;-inkscape-font-specification:Sans"
       x="167.37242"
       y="254.04286"
       id="text3034-7-5"
       sodipodi:linespacing="125%"><tspan
         style="font-size:6px"
         sodipodi:role="line"
         id="tspan3036-6-8"
         x="167.37242"
         y="254.04286">9</tspan></text>
    <text
       xml:space="preserve"
       style="font-size:10px;font-style:normal;font-variant:normal;font-weight:normal;font-stretch:normal;text-align:start;line-height:125%;letter-spacing:0px;word-spacing:0px;writing-mode:lr-tb;text-anchor:start;fill:#000000;fill-opacity:1;stroke:none;font-family:Sans;-inkscape-font-specification:Sans"
       x="252.57281"
       y="254.04286"
       id="text3034-7-5-4"
       sodipodi:linespacing="125%"><tspan
         style="font-size:6px"
         sodipodi:role="line"
         id="tspan3036-6-8-6"
         x="252.57281"
         y="254.04286">10</tspan></text>
    <text
       xml:space="preserve"
       style="font-size:10px;font-style:normal;font-variant:normal;font-weight:normal;font-stretch:normal;text-align:start;line-height:125%;letter-spacing:0px;word-spacing:0px;writing-mode:lr-tb;text-anchor:start;fill:#000000;fill-opacity:1;stroke:none;font-family:Sans;-inkscape-font-specification:Sans"
       x="338.57281"
       y="254.04286"
       id="text3034-7-5-4-7"
       sodipodi:linespacing="125%"><tspan
         style="font-size:6px"
         sodipodi:role="line"
         id="tspan3036-6-8-6-0"
         x="338.57281"
         y="254.04286">11</tspan></text>
    <text
       xml:space="preserve"
       style="font-size:10px;font-style:normal;font-variant:normal;font-weight:normal;font-stretch:normal;text-align:start;line-height:125%;letter-spacing:0px;word-spacing:0px;writing-mode:lr-tb;text-anchor:start;fill:#000000;fill-opacity:1;stroke:none;font-family:Sans;-inkscape-font-specification:Sans"
       x="422.57281"
       y="254.04286"
       id="text3034-7-5-4-7-1"
       sodipodi:linespacing="125%"><tspan
         style="font-size:6px"
         sodipodi:role="line"
         id="tspan3036-6-8-6-0-1"
         x="422.57281"
         y="254.04286">18</tspan></text>
  </g>
  <g
     id="g3662"
     transform="matrix(0.35108817,0,0,0.35108817,18.696737,-87.169179)">
    <g
       word-spacing="normal"
       letter-spacing="normal"
       font-size-adjust="none"
       font-stretch="normal"
       font-weight="normal"
       font-variant="normal"
       font-style="normal"
       stroke-miterlimit="10.433"
       xml:space="preserve"
       transform="matrix(1.0629921,0,0,-1.0629921,-186.02362,789.27165)"
       id="content"
       style="font-style:normal;font-variant:normal;font-weight:normal;font-stretch:normal;letter-spacing:normal;word-spacing:normal;text-anchor:start;fill:none;stroke:#000000;stroke-linecap:butt;stroke-linejoin:miter;stroke-miterlimit:10.43299961;stroke-opacity:1;stroke-dasharray:none;stroke-dashoffset:0"><path
         id="path3665"
         d="m 473.8,426.12 h 4.28 c 1,0 1.5,0 1.5,1 0,0.55 -0.5,0.55 -1.34,0.55 h -4.14 l 1.04,5.69 c 0.21,1.04 0.91,4.57 1.21,5.17 0.45,0.95 1.29,1.7 2.34,1.7 0.19,0 1.49,0 2.44,-0.91 -2.19,-0.18 -2.69,-1.93 -2.69,-2.68 0,-1.14 0.89,-1.74 1.85,-1.74 1.29,0 2.73,1.1 2.73,2.99 0,2.29 -2.3,3.43 -4.33,3.43 -1.7,0 -4.84,-0.89 -6.33,-5.82 -0.29,-1.05 -0.45,-1.55 -1.64,-7.83 h -3.43 c -0.96,0 -1.5,0 -1.5,-0.94 0,-0.61 0.45,-0.61 1.39,-0.61 h 3.29 l -3.75,-19.67 c -0.89,-4.83 -1.73,-9.38 -4.33,-9.38 -0.2,0 -1.43,0 -2.39,0.91 2.3,0.14 2.74,1.94 2.74,2.69 0,1.14 -0.89,1.75 -1.85,1.75 -1.29,0 -2.73,-1.1 -2.73,-3 0,-2.24 2.19,-3.44 4.23,-3.44 2.74,0 4.74,2.94 5.63,4.84 1.59,3.14 2.75,9.16 2.8,9.52 z"
         inkscape:connector-curvature="0"
         style="fill:#000000;stroke-width:0" /><path
         id="path3667"
         d="m 501.77,394.25 0,0.02 -0.01,0.03 0,0.01 0,0.02 0,0.01 -0.01,0.02 0,0.01 -0.01,0.02 -0.01,0.02 -0.01,0.02 -0.01,0.02 -0.01,0.03 -0.02,0.02 -0.02,0.03 -0.02,0.03 -0.02,0.03 -0.03,0.03 -0.03,0.04 -0.02,0.02 -0.01,0.02 -0.02,0.02 -0.02,0.02 -0.02,0.02 -0.02,0.03 -0.02,0.02 -0.02,0.02 -0.02,0.03 -0.03,0.02 -0.02,0.03 -0.03,0.03 -0.02,0.03 -0.03,0.03 -0.03,0.03 -0.03,0.03 -0.03,0.03 -0.03,0.03 -0.04,0.04 -0.03,0.03 -0.03,0.04 -0.04,0.03 -0.04,0.04 -0.04,0.04 c -6.22,6.28 -7.81,15.69 -7.81,23.31 0,8.67 1.89,17.35 8.01,23.56 0.65,0.61 0.65,0.71 0.65,0.86 0,0.35 -0.19,0.49 -0.49,0.49 -0.5,0 -4.98,-3.38 -7.92,-9.7 -2.55,-5.49 -3.14,-11.02 -3.14,-15.21 0,-3.89 0.55,-9.9 3.28,-15.54 2.98,-6.13 7.28,-9.36 7.78,-9.36 0.3,0 0.49,0.14 0.49,0.5 z"
         inkscape:connector-curvature="0"
         style="fill:#000000;stroke-width:0" /><path
         id="path3669"
         d="m 521.24,421.25 0.03,0.13 0.03,0.15 0.05,0.16 0.04,0.18 0.05,0.19 0.06,0.21 0.07,0.22 0.07,0.22 0.08,0.23 0.09,0.24 0.09,0.25 0.11,0.24 0.11,0.25 0.12,0.25 0.13,0.25 0.14,0.25 0.14,0.24 0.16,0.24 0.17,0.23 0.17,0.22 0.19,0.22 0.2,0.2 0.21,0.19 0.22,0.18 0.23,0.16 0.25,0.14 0.12,0.07 0.13,0.06 0.14,0.05 0.13,0.05 0.14,0.05 0.14,0.04 0.15,0.03 0.15,0.03 0.15,0.02 0.15,0.02 0.16,0.01 0.17,0 c 0.25,0 1.43,0 2.48,-0.64 -1.39,-0.25 -2.39,-1.5 -2.39,-2.69 0,-0.79 0.55,-1.75 1.89,-1.75 1.09,0 2.69,0.89 2.69,2.89 0,2.6 -2.94,3.28 -4.63,3.28 -2.89,0 -4.64,-2.64 -5.23,-3.78 -1.25,3.28 -3.94,3.78 -5.38,3.78 -5.18,0 -8.03,-6.42 -8.03,-7.67 0,-0.5 0.5,-0.5 0.61,-0.5 0.39,0 0.55,0.11 0.64,0.55 1.69,5.28 4.99,6.53 6.67,6.53 0.96,0 2.69,-0.44 2.69,-3.33 0,-1.54 -0.84,-4.89 -2.69,-11.86 -0.79,-3.09 -2.53,-5.18 -4.73,-5.18 -0.3,0 -1.44,0 -2.48,0.65 1.25,0.24 2.34,1.28 2.34,2.69 0,1.34 -1.09,1.73 -1.84,1.73 -1.5,0 -2.75,-1.29 -2.75,-2.89 0,-2.28 2.5,-3.28 4.68,-3.28 3.3,0 5.08,3.49 5.24,3.78 0.59,-1.84 2.39,-3.78 5.37,-3.78 5.14,0 7.99,6.42 7.99,7.67 0,0.5 -0.46,0.5 -0.61,0.5 -0.44,0 -0.55,-0.2 -0.64,-0.54 -1.64,-5.33 -5.04,-6.53 -6.63,-6.53 -1.95,0 -2.75,1.59 -2.75,3.29 0,1.1 0.3,2.19 0.86,4.38 z"
         inkscape:connector-curvature="0"
         style="fill:#000000;stroke-width:0" /><path
         id="path3671"
         d="m 547.43,418.65 -0.01,0.37 0,0.39 -0.01,0.39 -0.01,0.41 -0.04,0.84 -0.06,0.88 -0.08,0.92 -0.11,0.95 -0.14,0.97 -0.16,1.01 -0.2,1.02 -0.23,1.03 -0.26,1.05 -0.31,1.06 -0.35,1.07 -0.39,1.07 -0.21,0.53 -0.23,0.53 -0.24,0.53 -0.24,0.53 c -2.99,6.12 -7.27,9.36 -7.77,9.36 -0.3,0 -0.5,-0.19 -0.5,-0.49 0,-0.15 0,-0.25 0.94,-1.15 4.89,-4.92 7.73,-12.85 7.73,-23.27 0,-8.51 -1.84,-17.28 -8.03,-23.56 -0.64,-0.59 -0.64,-0.7 -0.64,-0.84 0,-0.3 0.2,-0.5 0.5,-0.5 0.5,0 4.97,3.39 7.92,9.71 2.53,5.47 3.13,11 3.13,15.19 z"
         inkscape:connector-curvature="0"
         style="fill:#000000;stroke-width:0" /><path
         id="path3673"
         d="m 600.62,422.5 0.14,0 0.15,0 0.14,0 0.08,0.01 0.07,0 0.07,0.01 0.07,0.01 0.07,0.01 0.07,0.01 0.07,0.01 0.07,0.02 0.06,0.02 0.06,0.02 0.06,0.02 0.06,0.03 0.06,0.03 0.05,0.04 0.05,0.03 0.05,0.05 0.04,0.04 0.04,0.05 0.02,0.03 0.02,0.03 0.01,0.02 0.02,0.03 0.01,0.03 0.02,0.04 0.01,0.03 0.01,0.04 0.01,0.03 0.01,0.04 0.01,0.04 0,0.04 0.01,0.04 0,0.04 0,0.04 0,0.05 c 0,1 -0.95,1 -1.64,1 h -29.84 c -0.71,0 -1.64,0 -1.64,-1 0,-0.98 0.93,-0.98 1.69,-0.98 z"
         inkscape:connector-curvature="0"
         style="fill:#000000;stroke-width:0" /><path
         id="path3675"
         d="m 600.67,412.82 0.07,0 0.06,0 0.14,0.01 0.14,0 0.07,0 0.07,0.01 0.07,0.01 0.07,0 0.07,0.01 0.06,0.02 0.07,0.01 0.06,0.02 0.07,0.02 0.06,0.02 0.06,0.02 0.06,0.03 0.05,0.03 0.05,0.04 0.05,0.04 0.05,0.04 0.04,0.05 0.02,0.02 0.02,0.03 0.02,0.02 0.02,0.03 0.01,0.03 0.02,0.03 0.01,0.03 0.02,0.03 0.01,0.04 0.01,0.03 0.01,0.04 0.01,0.04 0.01,0.04 0,0.04 0.01,0.04 0,0.04 0,0.05 0,0.04 c 0,1 -0.95,1 -1.69,1 h -29.74 c -0.76,0 -1.69,0 -1.69,-1 0,-1 0.93,-1 1.64,-1 z"
         inkscape:connector-curvature="0"
         style="fill:#000000;stroke-width:0" /><path
         id="path3677"
         d="m 635.43,394.25 0,0.02 0,0.03 0,0.01 0,0.02 0,0.01 -0.01,0.02 0,0.01 -0.01,0.02 -0.01,0.02 -0.01,0.02 -0.01,0.02 -0.02,0.03 -0.01,0.02 -0.02,0.03 -0.02,0.03 -0.03,0.03 -0.02,0.03 -0.03,0.04 -0.02,0.02 -0.01,0.02 -0.02,0.02 -0.02,0.02 -0.02,0.02 -0.02,0.03 -0.02,0.02 -0.02,0.02 -0.02,0.03 -0.03,0.02 -0.02,0.03 -0.03,0.03 -0.03,0.03 -0.02,0.03 -0.03,0.03 -0.03,0.03 -0.03,0.03 -0.03,0.03 -0.04,0.04 -0.03,0.03 -0.04,0.04 -0.03,0.03 -0.04,0.04 -0.04,0.04 c -6.22,6.28 -7.81,15.69 -7.81,23.31 0,8.67 1.89,17.35 8.01,23.56 0.64,0.61 0.64,0.71 0.64,0.86 0,0.35 -0.18,0.49 -0.48,0.49 -0.5,0 -4.98,-3.38 -7.92,-9.7 -2.55,-5.49 -3.14,-11.02 -3.14,-15.21 0,-3.89 0.54,-9.9 3.28,-15.54 2.98,-6.13 7.28,-9.36 7.78,-9.36 0.3,0 0.48,0.14 0.48,0.5 z"
         inkscape:connector-curvature="0"
         style="fill:#000000;stroke-width:0" /><path
         id="path3679"
         d="m 654.91,421.25 0.03,0.13 0.03,0.15 0.04,0.16 0.05,0.18 0.05,0.19 0.06,0.21 0.07,0.22 0.07,0.22 0.08,0.23 0.09,0.24 0.09,0.25 0.11,0.24 0.11,0.25 0.12,0.25 0.13,0.25 0.13,0.25 0.15,0.24 0.16,0.24 0.16,0.23 0.18,0.22 0.19,0.22 0.2,0.2 0.21,0.19 0.22,0.18 0.23,0.16 0.24,0.14 0.13,0.07 0.13,0.06 0.13,0.05 0.14,0.05 0.14,0.05 0.14,0.04 0.15,0.03 0.15,0.03 0.15,0.02 0.15,0.02 0.16,0.01 0.16,0 c 0.25,0 1.44,0 2.49,-0.64 -1.39,-0.25 -2.39,-1.5 -2.39,-2.69 0,-0.79 0.54,-1.75 1.89,-1.75 1.09,0 2.69,0.89 2.69,2.89 0,2.6 -2.94,3.28 -4.63,3.28 -2.89,0 -4.64,-2.64 -5.23,-3.78 -1.25,3.28 -3.94,3.78 -5.38,3.78 -5.19,0 -8.03,-6.42 -8.03,-7.67 0,-0.5 0.5,-0.5 0.61,-0.5 0.39,0 0.55,0.11 0.64,0.55 1.69,5.28 4.98,6.53 6.67,6.53 0.95,0 2.69,-0.44 2.69,-3.33 0,-1.54 -0.84,-4.89 -2.69,-11.86 -0.79,-3.09 -2.53,-5.18 -4.73,-5.18 -0.3,0 -1.44,0 -2.49,0.65 1.25,0.24 2.35,1.28 2.35,2.69 0,1.34 -1.1,1.73 -1.85,1.73 -1.5,0 -2.75,-1.29 -2.75,-2.89 0,-2.28 2.5,-3.28 4.69,-3.28 3.3,0 5.08,3.49 5.23,3.78 0.6,-1.84 2.4,-3.78 5.38,-3.78 5.14,0 7.98,6.42 7.98,7.67 0,0.5 -0.45,0.5 -0.6,0.5 -0.44,0 -0.55,-0.2 -0.65,-0.54 -1.64,-5.33 -5.03,-6.53 -6.62,-6.53 -1.95,0 -2.75,1.59 -2.75,3.29 0,1.1 0.3,2.19 0.86,4.38 z"
         inkscape:connector-curvature="0"
         style="fill:#000000;stroke-width:0" /><path
         id="path3681"
         d="m 710.69,417.65 0.16,0 0.16,0 0.16,0.01 0.07,0 0.08,0.01 0.08,0 0.07,0.01 0.07,0.01 0.08,0.01 0.07,0.02 0.06,0.02 0.07,0.02 0.06,0.02 0.06,0.02 0.06,0.03 0.06,0.03 0.05,0.04 0.05,0.03 0.05,0.05 0.04,0.04 0.04,0.05 0.01,0.03 0.02,0.03 0.02,0.03 0.01,0.03 0.02,0.03 0.01,0.03 0.01,0.04 0.01,0.03 0.01,0.04 0.01,0.04 0,0.04 0.01,0.04 0.01,0.04 0,0.04 0,0.05 0,0.04 c 0,1 -0.91,1 -1.75,1 h -26.95 c -0.84,0 -1.74,0 -1.74,-1 0,-1 0.9,-1 1.74,-1 z"
         inkscape:connector-curvature="0"
         style="fill:#000000;stroke-width:0" /><path
         id="path3683"
         d="m 733.99,410.04 5.28,5.13 c 7.76,6.87 10.76,9.56 10.76,14.54 0,5.69 -4.48,9.68 -10.56,9.68 -5.64,0 -9.32,-4.6 -9.32,-9.03 0,-2.79 2.5,-2.79 2.63,-2.79 0.87,0 2.6,0.6 2.6,2.64 0,1.3 -0.89,2.6 -2.64,2.6 -0.39,0 -0.5,0 -0.64,-0.05 1.14,3.24 3.83,5.08 6.72,5.08 4.53,0 6.68,-4.05 6.68,-8.13 0,-3.98 -2.5,-7.92 -5.23,-11.01 l -9.56,-10.66 c -0.56,-0.54 -0.56,-0.64 -0.56,-1.84 h 18.48 l 1.4,8.67 h -1.25 c -0.25,-1.5 -0.59,-3.69 -1.09,-4.44 -0.36,-0.39 -3.64,-0.39 -4.73,-0.39 z"
         inkscape:connector-curvature="0"
         style="fill:#000000;stroke-width:0" /><path
         id="path3685"
         d="m 767.01,418.65 0,0.37 -0.01,0.39 -0.01,0.39 -0.01,0.41 -0.04,0.84 -0.06,0.88 -0.08,0.92 -0.11,0.95 -0.13,0.97 -0.17,1.01 -0.19,1.02 -0.23,1.03 -0.27,1.05 -0.31,1.06 -0.34,1.07 -0.4,1.07 -0.21,0.53 -0.23,0.53 -0.23,0.53 -0.25,0.53 c -2.99,6.12 -7.27,9.36 -7.77,9.36 -0.3,0 -0.5,-0.19 -0.5,-0.49 0,-0.15 0,-0.25 0.94,-1.15 4.89,-4.92 7.73,-12.85 7.73,-23.27 0,-8.51 -1.84,-17.28 -8.03,-23.56 -0.64,-0.59 -0.64,-0.7 -0.64,-0.84 0,-0.3 0.2,-0.5 0.5,-0.5 0.5,0 4.97,3.39 7.92,9.71 2.53,5.47 3.13,11 3.13,15.19 z"
         inkscape:connector-curvature="0"
         style="fill:#000000;stroke-width:0" /><path
         id="path3687"
         d="m 781.48,435.84 0.25,-0.01 0.25,-0.01 0.24,-0.03 0.24,-0.04 0.23,-0.05 0.23,-0.06 0.22,-0.07 0.21,-0.08 0.21,-0.1 0.2,-0.1 0.2,-0.12 0.19,-0.12 0.18,-0.14 0.18,-0.15 0.16,-0.16 0.16,-0.17 0.15,-0.18 0.15,-0.19 0.13,-0.21 0.13,-0.21 0.11,-0.23 0.11,-0.23 0.1,-0.25 0.09,-0.25 0.08,-0.27 0.07,-0.28 0.06,-0.29 0.05,-0.3 0.04,-0.31 0.03,-0.32 0.01,-0.34 0.01,-0.34 c 0,-4.33 -2.52,-5.61 -4.53,-5.61 -1.39,0 -4.47,0.38 -5.92,2.44 1.62,0.06 2.01,1.22 2.01,1.95 0,1.11 -0.84,1.91 -1.92,1.91 -0.97,0 -1.95,-0.6 -1.95,-2.02 0,-3.28 3.62,-5.4 7.84,-5.4 4.84,0 8.19,3.25 8.19,6.73 0,2.72 -2.22,5.44 -6.07,6.23 3.66,1.33 4.99,3.94 4.99,6.07 0,2.75 -3.17,4.81 -7.03,4.81 -3.88,0 -6.83,-1.89 -6.83,-4.67 0,-1.19 0.77,-1.85 1.81,-1.85 1.08,0 1.77,0.8 1.77,1.77 0,1.02 -0.69,1.75 -1.77,1.81 1.22,1.55 3.61,1.92 4.91,1.92 1.56,0 3.76,-0.76 3.76,-3.79 0,-1.47 -0.48,-3.07 -1.39,-4.14 -1.15,-1.33 -2.12,-1.41 -3.87,-1.5 -0.88,-0.08 -0.94,-0.08 -1.11,-0.11 -0.08,0 -0.36,-0.07 -0.36,-0.46 0,-0.48 0.31,-0.48 0.91,-0.48 z"
         inkscape:connector-curvature="0"
         style="fill:#000000;stroke-width:0" /><path
         id="path3689"
         d="m 825.7,417.65 h 13.9 c 0.69,0 1.64,0 1.64,1 0,1 -0.95,1 -1.64,1 h -13.9 v 13.96 c 0,0.68 0,1.64 -1,1.64 -0.99,0 -0.99,-0.96 -0.99,-1.64 v -13.96 h -13.95 c -0.71,0 -1.64,0 -1.64,-1 0,-1 0.93,-1 1.64,-1 h 13.95 v -13.94 c 0,-0.7 0,-1.65 0.99,-1.65 1,0 1,0.95 1,1.65 z"
         inkscape:connector-curvature="0"
         style="fill:#000000;stroke-width:0" /><path
         id="path3691"
         d="m 869.76,438.09 0,0.05 0,0.06 0,0.05 0,0.05 0,0.05 0,0.05 0,0.04 0,0.05 -0.01,0.04 0,0.04 0,0.04 0,0.04 0,0.04 0,0.03 -0.01,0.04 0,0.03 -0.01,0.07 -0.01,0.06 -0.01,0.05 -0.01,0.05 -0.02,0.05 -0.02,0.04 -0.02,0.04 -0.02,0.03 -0.03,0.03 -0.04,0.03 -0.03,0.03 -0.04,0.02 -0.04,0.02 -0.03,0.01 -0.02,0.01 -0.03,0 -0.03,0.01 -0.02,0.01 -0.03,0 -0.03,0.01 -0.04,0 -0.03,0.01 -0.03,0 -0.04,0 -0.04,0.01 -0.04,0 -0.04,0 -0.04,0 -0.04,0 -0.05,0 -0.04,0.01 -0.05,0 -0.05,0 -0.05,0 -0.05,0 c -3.1,-3.19 -7.47,-3.19 -9.07,-3.19 v -1.55 c 1,0 3.94,0 6.52,1.3 v -25.81 c 0,-1.8 -0.14,-2.39 -4.62,-2.39 h -1.6 v -1.55 c 1.75,0.16 6.08,0.16 8.06,0.16 2,0 6.33,0 8.08,-0.16 v 1.55 h -1.59 c -4.49,0 -4.64,0.54 -4.64,2.39 z"
         inkscape:connector-curvature="0"
         style="fill:#000000;stroke-width:0" /><path
         id="path3693"
         d="m 903,422.14 -0.01,0.74 -0.01,0.75 -0.02,0.75 -0.03,0.74 -0.05,0.75 -0.06,0.74 -0.07,0.74 -0.1,0.73 -0.11,0.73 -0.14,0.73 -0.16,0.72 -0.19,0.72 -0.22,0.72 -0.25,0.7 -0.27,0.7 -0.15,0.35 -0.16,0.34 c -2.28,4.8 -6.38,5.6 -8.47,5.6 -2.99,0 -6.63,-1.3 -8.68,-5.94 -1.59,-3.44 -1.84,-7.33 -1.84,-11.31 0,-3.74 0.21,-8.22 2.25,-12 2.14,-4.03 5.78,-5.03 8.22,-5.03 v 1.09 c -1.94,0 -4.89,1.25 -5.78,6.03 -0.55,2.98 -0.55,7.56 -0.55,10.52 0,3.18 0,6.46 0.41,9.15 0.94,5.94 4.67,6.38 5.92,6.38 1.64,0 4.94,-0.89 5.87,-5.83 0.5,-2.78 0.5,-6.58 0.5,-9.7 0,-3.75 0,-7.13 -0.54,-10.32 -0.75,-4.73 -3.59,-6.23 -5.83,-6.23 h 0 v -1.09 c 2.69,0 6.47,1.04 8.67,5.78 1.6,3.43 1.85,7.31 1.85,11.25 z"
         inkscape:connector-curvature="0"
         style="fill:#000000;stroke-width:0" /></g>  </g>
</svg>
